<mxfile host="app.diagrams.net" modified="2022-02-03T05:08:50.152Z" agent="5.0 (Windows NT 10.0; Win64; x64) AppleWebKit/537.36 (KHTML, like Gecko) Chrome/97.0.4692.99 Safari/537.36" etag="hltNpiTr-Jl-loDh2sT7" version="16.5.3" type="github">
  <diagram id="Szi9JneVKJrBSlslm1Gh" name="Page-1">
    <mxGraphModel dx="1668" dy="912" grid="1" gridSize="10" guides="1" tooltips="1" connect="1" arrows="1" fold="1" page="1" pageScale="1" pageWidth="1169" pageHeight="1654" math="0" shadow="0">
      <root>
        <mxCell id="0" />
        <mxCell id="1" parent="0" />
        <mxCell id="mUfqZhUHqCJB--Umb8MJ-71" value="" style="rounded=1;whiteSpace=wrap;html=1;shadow=0;fontSize=20;strokeColor=#b85450;strokeWidth=1.5;fillColor=#f8cecc;" vertex="1" parent="1">
          <mxGeometry x="470" y="870" width="380" height="150" as="geometry" />
        </mxCell>
        <mxCell id="mUfqZhUHqCJB--Umb8MJ-20" value="" style="rounded=1;whiteSpace=wrap;html=1;shadow=0;fontSize=14;strokeWidth=1.5;fillColor=#f9f7ed;strokeColor=#36393d;" vertex="1" parent="1">
          <mxGeometry x="280" y="557" width="360" height="270" as="geometry" />
        </mxCell>
        <mxCell id="mUfqZhUHqCJB--Umb8MJ-1" value="" style="rounded=1;whiteSpace=wrap;html=1;fillColor=#f5f5f5;strokeColor=#666666;strokeWidth=1;shadow=0;fontColor=#333333;" vertex="1" parent="1">
          <mxGeometry x="240" y="140" width="540" height="360" as="geometry" />
        </mxCell>
        <mxCell id="mUfqZhUHqCJB--Umb8MJ-2" value="&lt;font style=&quot;font-size: 16px&quot;&gt;主线程&lt;/font&gt;" style="rounded=1;whiteSpace=wrap;html=1;shadow=0;strokeWidth=1.5;" vertex="1" parent="1">
          <mxGeometry x="425" y="170" width="150" height="30" as="geometry" />
        </mxCell>
        <mxCell id="mUfqZhUHqCJB--Umb8MJ-44" style="edgeStyle=orthogonalEdgeStyle;rounded=0;orthogonalLoop=1;jettySize=auto;html=1;entryX=0.5;entryY=0;entryDx=0;entryDy=0;fontSize=16;strokeWidth=1;" edge="1" parent="1" source="mUfqZhUHqCJB--Umb8MJ-4" target="mUfqZhUHqCJB--Umb8MJ-7">
          <mxGeometry relative="1" as="geometry">
            <Array as="points">
              <mxPoint x="500" y="300" />
              <mxPoint x="300" y="300" />
            </Array>
          </mxGeometry>
        </mxCell>
        <mxCell id="mUfqZhUHqCJB--Umb8MJ-45" style="edgeStyle=orthogonalEdgeStyle;rounded=0;orthogonalLoop=1;jettySize=auto;html=1;entryX=0.5;entryY=0;entryDx=0;entryDy=0;fontSize=16;strokeWidth=1;" edge="1" parent="1" source="mUfqZhUHqCJB--Umb8MJ-4" target="mUfqZhUHqCJB--Umb8MJ-8">
          <mxGeometry relative="1" as="geometry">
            <Array as="points">
              <mxPoint x="500" y="300" />
              <mxPoint x="400" y="300" />
            </Array>
          </mxGeometry>
        </mxCell>
        <mxCell id="mUfqZhUHqCJB--Umb8MJ-46" style="edgeStyle=orthogonalEdgeStyle;rounded=0;orthogonalLoop=1;jettySize=auto;html=1;entryX=0.5;entryY=0;entryDx=0;entryDy=0;fontSize=16;strokeWidth=1.5;" edge="1" parent="1" source="mUfqZhUHqCJB--Umb8MJ-4" target="mUfqZhUHqCJB--Umb8MJ-9">
          <mxGeometry relative="1" as="geometry" />
        </mxCell>
        <mxCell id="mUfqZhUHqCJB--Umb8MJ-48" style="edgeStyle=orthogonalEdgeStyle;rounded=0;orthogonalLoop=1;jettySize=auto;html=1;entryX=0.5;entryY=0;entryDx=0;entryDy=0;fontSize=16;strokeWidth=1;" edge="1" parent="1" source="mUfqZhUHqCJB--Umb8MJ-4" target="mUfqZhUHqCJB--Umb8MJ-10">
          <mxGeometry relative="1" as="geometry">
            <Array as="points">
              <mxPoint x="500" y="300" />
              <mxPoint x="600" y="300" />
            </Array>
          </mxGeometry>
        </mxCell>
        <mxCell id="mUfqZhUHqCJB--Umb8MJ-49" style="edgeStyle=orthogonalEdgeStyle;rounded=0;orthogonalLoop=1;jettySize=auto;html=1;entryX=0.5;entryY=0;entryDx=0;entryDy=0;fontSize=16;strokeWidth=1;" edge="1" parent="1" source="mUfqZhUHqCJB--Umb8MJ-4" target="mUfqZhUHqCJB--Umb8MJ-36">
          <mxGeometry relative="1" as="geometry">
            <Array as="points">
              <mxPoint x="500" y="300" />
              <mxPoint x="708" y="300" />
            </Array>
          </mxGeometry>
        </mxCell>
        <mxCell id="mUfqZhUHqCJB--Umb8MJ-4" value="&lt;font style=&quot;font-size: 14px&quot;&gt;epoll_wait监听socket事件&lt;/font&gt;" style="rounded=1;whiteSpace=wrap;html=1;shadow=0;fontSize=16;strokeWidth=1.5;" vertex="1" parent="1">
          <mxGeometry x="415" y="240" width="170" height="40" as="geometry" />
        </mxCell>
        <mxCell id="mUfqZhUHqCJB--Umb8MJ-107" style="edgeStyle=orthogonalEdgeStyle;rounded=0;orthogonalLoop=1;jettySize=auto;html=1;entryX=0.5;entryY=0;entryDx=0;entryDy=0;fontSize=16;strokeWidth=1;" edge="1" parent="1" source="mUfqZhUHqCJB--Umb8MJ-7" target="mUfqZhUHqCJB--Umb8MJ-85">
          <mxGeometry relative="1" as="geometry">
            <Array as="points">
              <mxPoint x="300" y="520" />
              <mxPoint x="115" y="520" />
            </Array>
          </mxGeometry>
        </mxCell>
        <mxCell id="mUfqZhUHqCJB--Umb8MJ-7" value="signal&lt;br&gt;(SIGARM）" style="rounded=0;whiteSpace=wrap;html=1;shadow=0;fontSize=14;strokeWidth=1.5;fillColor=#fff2cc;strokeColor=#d6b656;" vertex="1" parent="1">
          <mxGeometry x="260" y="330" width="80" height="40" as="geometry" />
        </mxCell>
        <mxCell id="mUfqZhUHqCJB--Umb8MJ-19" style="edgeStyle=orthogonalEdgeStyle;rounded=0;orthogonalLoop=1;jettySize=auto;html=1;entryX=0.5;entryY=0;entryDx=0;entryDy=0;fontSize=14;" edge="1" parent="1" source="mUfqZhUHqCJB--Umb8MJ-8">
          <mxGeometry relative="1" as="geometry">
            <mxPoint x="400" y="400" as="targetPoint" />
          </mxGeometry>
        </mxCell>
        <mxCell id="mUfqZhUHqCJB--Umb8MJ-8" value="可读事件" style="rounded=0;whiteSpace=wrap;html=1;shadow=0;fontSize=14;strokeWidth=1.5;fillColor=#d5e8d4;strokeColor=#82b366;" vertex="1" parent="1">
          <mxGeometry x="360" y="330" width="80" height="40" as="geometry" />
        </mxCell>
        <mxCell id="mUfqZhUHqCJB--Umb8MJ-81" style="edgeStyle=orthogonalEdgeStyle;rounded=0;orthogonalLoop=1;jettySize=auto;html=1;entryX=0.5;entryY=0;entryDx=0;entryDy=0;fontSize=16;strokeWidth=1;" edge="1" parent="1" source="mUfqZhUHqCJB--Umb8MJ-9" target="mUfqZhUHqCJB--Umb8MJ-80">
          <mxGeometry relative="1" as="geometry" />
        </mxCell>
        <mxCell id="mUfqZhUHqCJB--Umb8MJ-9" value="可写事件" style="rounded=0;whiteSpace=wrap;html=1;shadow=0;fontSize=14;strokeWidth=1.5;fillColor=#ffcccc;strokeColor=#36393d;" vertex="1" parent="1">
          <mxGeometry x="460" y="330" width="80" height="40" as="geometry" />
        </mxCell>
        <mxCell id="mUfqZhUHqCJB--Umb8MJ-84" style="edgeStyle=orthogonalEdgeStyle;rounded=0;orthogonalLoop=1;jettySize=auto;html=1;entryX=0.5;entryY=0;entryDx=0;entryDy=0;fontSize=16;strokeWidth=1;" edge="1" parent="1" source="mUfqZhUHqCJB--Umb8MJ-10" target="mUfqZhUHqCJB--Umb8MJ-83">
          <mxGeometry relative="1" as="geometry" />
        </mxCell>
        <mxCell id="mUfqZhUHqCJB--Umb8MJ-10" value="异常" style="rounded=0;whiteSpace=wrap;html=1;shadow=0;fontSize=14;strokeWidth=1.5;fillColor=#cce5ff;strokeColor=#36393d;" vertex="1" parent="1">
          <mxGeometry x="560" y="330" width="80" height="40" as="geometry" />
        </mxCell>
        <mxCell id="mUfqZhUHqCJB--Umb8MJ-43" style="edgeStyle=orthogonalEdgeStyle;rounded=0;orthogonalLoop=1;jettySize=auto;html=1;entryX=0.5;entryY=0;entryDx=0;entryDy=0;fontSize=16;strokeWidth=1;" edge="1" parent="1" source="mUfqZhUHqCJB--Umb8MJ-18" target="mUfqZhUHqCJB--Umb8MJ-24">
          <mxGeometry relative="1" as="geometry">
            <Array as="points">
              <mxPoint x="400" y="520" />
              <mxPoint x="325" y="520" />
            </Array>
          </mxGeometry>
        </mxCell>
        <mxCell id="mUfqZhUHqCJB--Umb8MJ-18" value="读取数据并封装" style="rounded=0;whiteSpace=wrap;html=1;shadow=0;fontSize=14;strokeWidth=1.5;fillColor=#d5e8d4;strokeColor=#82b366;" vertex="1" parent="1">
          <mxGeometry x="360" y="400" width="80" height="40" as="geometry" />
        </mxCell>
        <mxCell id="mUfqZhUHqCJB--Umb8MJ-22" value="&lt;font style=&quot;font-size: 16px&quot;&gt;半同步/半反应堆线程池&lt;/font&gt;" style="rounded=1;whiteSpace=wrap;html=1;shadow=0;strokeWidth=1.5;" vertex="1" parent="1">
          <mxGeometry x="372.5" y="580" width="187.5" height="30" as="geometry" />
        </mxCell>
        <mxCell id="mUfqZhUHqCJB--Umb8MJ-32" style="edgeStyle=orthogonalEdgeStyle;rounded=0;orthogonalLoop=1;jettySize=auto;html=1;entryX=0;entryY=0.5;entryDx=0;entryDy=0;fontSize=16;" edge="1" parent="1" source="mUfqZhUHqCJB--Umb8MJ-24" target="mUfqZhUHqCJB--Umb8MJ-29">
          <mxGeometry relative="1" as="geometry" />
        </mxCell>
        <mxCell id="mUfqZhUHqCJB--Umb8MJ-33" style="edgeStyle=orthogonalEdgeStyle;rounded=0;orthogonalLoop=1;jettySize=auto;html=1;entryX=0;entryY=0.5;entryDx=0;entryDy=0;fontSize=16;" edge="1" parent="1" source="mUfqZhUHqCJB--Umb8MJ-24" target="mUfqZhUHqCJB--Umb8MJ-30">
          <mxGeometry relative="1" as="geometry" />
        </mxCell>
        <mxCell id="mUfqZhUHqCJB--Umb8MJ-34" style="edgeStyle=orthogonalEdgeStyle;rounded=0;orthogonalLoop=1;jettySize=auto;html=1;entryX=0;entryY=0.5;entryDx=0;entryDy=0;fontSize=16;" edge="1" parent="1" source="mUfqZhUHqCJB--Umb8MJ-24" target="mUfqZhUHqCJB--Umb8MJ-31">
          <mxGeometry relative="1" as="geometry" />
        </mxCell>
        <mxCell id="mUfqZhUHqCJB--Umb8MJ-24" value="&lt;font style=&quot;font-size: 16px&quot;&gt;请求队列&lt;/font&gt;" style="rounded=0;whiteSpace=wrap;html=1;shadow=0;fontSize=14;strokeWidth=1.5;fillColor=#ffe6cc;strokeColor=#d79b00;" vertex="1" parent="1">
          <mxGeometry x="310" y="630" width="30" height="140" as="geometry" />
        </mxCell>
        <mxCell id="mUfqZhUHqCJB--Umb8MJ-29" value="工作线程" style="rounded=0;whiteSpace=wrap;html=1;shadow=0;fontSize=16;strokeWidth=1.5;fillColor=#d5e8d4;strokeColor=#1A1A1A;" vertex="1" parent="1">
          <mxGeometry x="428.75" y="630" width="117.5" height="30" as="geometry" />
        </mxCell>
        <mxCell id="mUfqZhUHqCJB--Umb8MJ-30" value="工作线程" style="rounded=0;whiteSpace=wrap;html=1;shadow=0;fontSize=16;strokeWidth=1.5;fillColor=#d5e8d4;strokeColor=#1A1A1A;" vertex="1" parent="1">
          <mxGeometry x="428.75" y="685" width="117.5" height="30" as="geometry" />
        </mxCell>
        <mxCell id="mUfqZhUHqCJB--Umb8MJ-31" value="工作线程" style="rounded=0;whiteSpace=wrap;html=1;shadow=0;fontSize=16;strokeWidth=1.5;fillColor=#d5e8d4;strokeColor=#1A1A1A;" vertex="1" parent="1">
          <mxGeometry x="428.75" y="740" width="117.5" height="30" as="geometry" />
        </mxCell>
        <mxCell id="mUfqZhUHqCJB--Umb8MJ-35" value="" style="rounded=1;whiteSpace=wrap;html=1;shadow=0;fontSize=16;strokeWidth=1.5;fillColor=#f5f5f5;strokeColor=#666666;fontColor=#333333;" vertex="1" parent="1">
          <mxGeometry x="680" y="557" width="380" height="273" as="geometry" />
        </mxCell>
        <mxCell id="mUfqZhUHqCJB--Umb8MJ-36" value="客户端连接" style="rounded=0;whiteSpace=wrap;html=1;shadow=0;fontSize=14;strokeWidth=1.5;fillColor=#d0cee2;strokeColor=#56517e;" vertex="1" parent="1">
          <mxGeometry x="667.5" y="330" width="80" height="40" as="geometry" />
        </mxCell>
        <mxCell id="mUfqZhUHqCJB--Umb8MJ-50" value="&lt;font style=&quot;font-size: 16px&quot;&gt;处理请求&lt;/font&gt;" style="rounded=1;whiteSpace=wrap;html=1;shadow=0;strokeWidth=1.5;" vertex="1" parent="1">
          <mxGeometry x="780" y="580" width="150" height="30" as="geometry" />
        </mxCell>
        <mxCell id="mUfqZhUHqCJB--Umb8MJ-55" value="" style="edgeStyle=orthogonalEdgeStyle;rounded=0;orthogonalLoop=1;jettySize=auto;html=1;fontSize=16;strokeWidth=1;" edge="1" parent="1" source="mUfqZhUHqCJB--Umb8MJ-52" target="mUfqZhUHqCJB--Umb8MJ-54">
          <mxGeometry relative="1" as="geometry" />
        </mxCell>
        <mxCell id="mUfqZhUHqCJB--Umb8MJ-77" style="edgeStyle=orthogonalEdgeStyle;rounded=0;orthogonalLoop=1;jettySize=auto;html=1;entryX=0.5;entryY=0;entryDx=0;entryDy=0;fontSize=16;strokeWidth=1;" edge="1" parent="1" source="mUfqZhUHqCJB--Umb8MJ-52" target="mUfqZhUHqCJB--Umb8MJ-71">
          <mxGeometry relative="1" as="geometry">
            <Array as="points">
              <mxPoint x="660" y="645" />
            </Array>
          </mxGeometry>
        </mxCell>
        <mxCell id="mUfqZhUHqCJB--Umb8MJ-52" value="GET" style="rounded=0;whiteSpace=wrap;html=1;shadow=0;fontSize=16;strokeWidth=1.5;fillColor=#cce5ff;strokeColor=#36393d;" vertex="1" parent="1">
          <mxGeometry x="710" y="630" width="80" height="30" as="geometry" />
        </mxCell>
        <mxCell id="mUfqZhUHqCJB--Umb8MJ-61" value="" style="edgeStyle=orthogonalEdgeStyle;rounded=0;orthogonalLoop=1;jettySize=auto;html=1;fontSize=14;strokeWidth=1;" edge="1" parent="1" source="mUfqZhUHqCJB--Umb8MJ-53" target="mUfqZhUHqCJB--Umb8MJ-60">
          <mxGeometry relative="1" as="geometry" />
        </mxCell>
        <mxCell id="mUfqZhUHqCJB--Umb8MJ-53" value="POST" style="rounded=0;whiteSpace=wrap;html=1;shadow=0;fontSize=16;strokeWidth=1.5;fillColor=#cce5ff;strokeColor=#36393d;" vertex="1" parent="1">
          <mxGeometry x="710" y="740" width="80" height="30" as="geometry" />
        </mxCell>
        <mxCell id="mUfqZhUHqCJB--Umb8MJ-65" style="edgeStyle=orthogonalEdgeStyle;rounded=0;orthogonalLoop=1;jettySize=auto;html=1;entryX=1;entryY=0.5;entryDx=0;entryDy=0;fontSize=14;strokeWidth=1;" edge="1" parent="1" source="mUfqZhUHqCJB--Umb8MJ-54" target="mUfqZhUHqCJB--Umb8MJ-4">
          <mxGeometry relative="1" as="geometry">
            <Array as="points">
              <mxPoint x="960" y="260" />
            </Array>
          </mxGeometry>
        </mxCell>
        <mxCell id="mUfqZhUHqCJB--Umb8MJ-54" value="响应客户端" style="whiteSpace=wrap;html=1;fontSize=16;fillColor=#fff2cc;strokeColor=#d6b656;rounded=0;shadow=0;strokeWidth=1.5;" vertex="1" parent="1">
          <mxGeometry x="900" y="627.5" width="120" height="35" as="geometry" />
        </mxCell>
        <mxCell id="mUfqZhUHqCJB--Umb8MJ-56" value="&lt;font style=&quot;font-size: 14px&quot;&gt;寻找资源&lt;/font&gt;" style="rounded=1;whiteSpace=wrap;html=1;shadow=0;strokeWidth=1.5;strokeColor=#F5F5F5;fillColor=#f5f5f5;fontColor=#333333;" vertex="1" parent="1">
          <mxGeometry x="797.5" y="620" width="92.5" height="20" as="geometry" />
        </mxCell>
        <mxCell id="mUfqZhUHqCJB--Umb8MJ-63" value="" style="edgeStyle=orthogonalEdgeStyle;rounded=0;orthogonalLoop=1;jettySize=auto;html=1;fontSize=14;strokeWidth=1;" edge="1" parent="1" source="mUfqZhUHqCJB--Umb8MJ-60" target="mUfqZhUHqCJB--Umb8MJ-62">
          <mxGeometry relative="1" as="geometry" />
        </mxCell>
        <mxCell id="mUfqZhUHqCJB--Umb8MJ-60" value="注册&lt;br&gt;登陆" style="whiteSpace=wrap;html=1;fontSize=16;fillColor=#fff2cc;strokeColor=#d6b656;rounded=0;shadow=0;strokeWidth=1.5;" vertex="1" parent="1">
          <mxGeometry x="830" y="730" width="70" height="50" as="geometry" />
        </mxCell>
        <mxCell id="mUfqZhUHqCJB--Umb8MJ-64" style="edgeStyle=orthogonalEdgeStyle;rounded=0;orthogonalLoop=1;jettySize=auto;html=1;entryX=1;entryY=0.5;entryDx=0;entryDy=0;fontSize=14;strokeWidth=1;exitX=1;exitY=0.5;exitDx=0;exitDy=0;" edge="1" parent="1" source="mUfqZhUHqCJB--Umb8MJ-62" target="mUfqZhUHqCJB--Umb8MJ-54">
          <mxGeometry relative="1" as="geometry" />
        </mxCell>
        <mxCell id="mUfqZhUHqCJB--Umb8MJ-62" value="MYSQL数据库" style="whiteSpace=wrap;html=1;fontSize=16;fillColor=#d5e8d4;strokeColor=#82b366;rounded=0;shadow=0;strokeWidth=1.5;" vertex="1" parent="1">
          <mxGeometry x="935" y="725" width="85" height="60" as="geometry" />
        </mxCell>
        <mxCell id="mUfqZhUHqCJB--Umb8MJ-66" style="edgeStyle=orthogonalEdgeStyle;rounded=0;orthogonalLoop=1;jettySize=auto;html=1;entryX=0;entryY=0.5;entryDx=0;entryDy=0;fontSize=14;strokeWidth=1;" edge="1" parent="1" source="mUfqZhUHqCJB--Umb8MJ-29" target="mUfqZhUHqCJB--Umb8MJ-52">
          <mxGeometry relative="1" as="geometry" />
        </mxCell>
        <mxCell id="mUfqZhUHqCJB--Umb8MJ-68" style="edgeStyle=orthogonalEdgeStyle;rounded=0;orthogonalLoop=1;jettySize=auto;html=1;entryX=0;entryY=0.5;entryDx=0;entryDy=0;fontSize=14;strokeWidth=1;" edge="1" parent="1" source="mUfqZhUHqCJB--Umb8MJ-31" target="mUfqZhUHqCJB--Umb8MJ-53">
          <mxGeometry relative="1" as="geometry" />
        </mxCell>
        <mxCell id="mUfqZhUHqCJB--Umb8MJ-69" value="&lt;font style=&quot;font-size: 16px&quot;&gt;基于条件变量和锁实现的&lt;b&gt;异步日志&lt;/b&gt;&lt;/font&gt;" style="rounded=0;whiteSpace=wrap;html=1;shadow=0;fontSize=14;strokeColor=#666666;strokeWidth=1.5;fillColor=#f5f5f5;fontColor=#333333;" vertex="1" parent="1">
          <mxGeometry x="490" y="940" width="162.5" height="50" as="geometry" />
        </mxCell>
        <mxCell id="mUfqZhUHqCJB--Umb8MJ-70" value="&lt;font style=&quot;font-size: 16px&quot;&gt;同步日志&lt;/font&gt;" style="rounded=0;whiteSpace=wrap;html=1;shadow=0;fontSize=14;strokeWidth=1.5;fillColor=#f5f5f5;fontColor=#333333;strokeColor=#666666;" vertex="1" parent="1">
          <mxGeometry x="697.5" y="940" width="132.5" height="50" as="geometry" />
        </mxCell>
        <mxCell id="mUfqZhUHqCJB--Umb8MJ-72" value="&lt;span style=&quot;font-size: 16px&quot;&gt;日志&lt;/span&gt;" style="rounded=1;whiteSpace=wrap;html=1;shadow=0;strokeWidth=1.5;" vertex="1" parent="1">
          <mxGeometry x="590" y="890" width="150" height="30" as="geometry" />
        </mxCell>
        <mxCell id="mUfqZhUHqCJB--Umb8MJ-73" style="edgeStyle=orthogonalEdgeStyle;rounded=0;orthogonalLoop=1;jettySize=auto;html=1;exitX=0.5;exitY=1;exitDx=0;exitDy=0;fontSize=16;strokeWidth=1;" edge="1" parent="1" source="mUfqZhUHqCJB--Umb8MJ-71" target="mUfqZhUHqCJB--Umb8MJ-71">
          <mxGeometry relative="1" as="geometry" />
        </mxCell>
        <mxCell id="mUfqZhUHqCJB--Umb8MJ-80" value="向客户端发送数据" style="rounded=0;whiteSpace=wrap;html=1;shadow=0;fontSize=14;strokeWidth=1.5;fillColor=#f8cecc;strokeColor=#b85450;" vertex="1" parent="1">
          <mxGeometry x="455" y="400" width="90" height="40" as="geometry" />
        </mxCell>
        <mxCell id="mUfqZhUHqCJB--Umb8MJ-83" value="断开连接" style="rounded=0;whiteSpace=wrap;html=1;shadow=0;fontSize=14;strokeWidth=1.5;fillColor=#dae8fc;strokeColor=#6c8ebf;" vertex="1" parent="1">
          <mxGeometry x="560" y="400" width="80" height="40" as="geometry" />
        </mxCell>
        <mxCell id="mUfqZhUHqCJB--Umb8MJ-85" value="" style="rounded=1;whiteSpace=wrap;html=1;shadow=0;fontSize=16;strokeColor=#82b366;strokeWidth=1.5;fillColor=#d5e8d4;" vertex="1" parent="1">
          <mxGeometry x="40" y="550" width="150" height="360" as="geometry" />
        </mxCell>
        <mxCell id="mUfqZhUHqCJB--Umb8MJ-86" value="&lt;font style=&quot;font-size: 16px&quot;&gt;基于小根堆的定时器容器&lt;/font&gt;" style="rounded=1;whiteSpace=wrap;html=1;shadow=0;strokeWidth=1.5;fillColor=#d5e8d4;strokeColor=#D5E8D4;" vertex="1" parent="1">
          <mxGeometry x="45" y="580" width="140" height="60" as="geometry" />
        </mxCell>
        <mxCell id="mUfqZhUHqCJB--Umb8MJ-88" value="" style="ellipse;whiteSpace=wrap;html=1;aspect=fixed;shadow=0;fontSize=16;strokeColor=#D5E8D4;strokeWidth=1.5;fillColor=#FFFFFF;gradientColor=none;" vertex="1" parent="1">
          <mxGeometry x="103.5" y="652" width="26.5" height="26.5" as="geometry" />
        </mxCell>
        <mxCell id="mUfqZhUHqCJB--Umb8MJ-90" value="" style="ellipse;whiteSpace=wrap;html=1;aspect=fixed;shadow=0;fontSize=16;strokeColor=#D5E8D4;strokeWidth=1.5;fillColor=#FFFFFF;gradientColor=none;" vertex="1" parent="1">
          <mxGeometry x="140" y="686.75" width="26.5" height="26.5" as="geometry" />
        </mxCell>
        <mxCell id="mUfqZhUHqCJB--Umb8MJ-91" value="" style="ellipse;whiteSpace=wrap;html=1;aspect=fixed;shadow=0;fontSize=16;strokeColor=#D5E8D4;strokeWidth=1.5;fillColor=#FFFFFF;gradientColor=none;" vertex="1" parent="1">
          <mxGeometry x="45" y="730" width="26.5" height="26.5" as="geometry" />
        </mxCell>
        <mxCell id="mUfqZhUHqCJB--Umb8MJ-92" value="" style="ellipse;whiteSpace=wrap;html=1;aspect=fixed;shadow=0;fontSize=16;strokeColor=#D5E8D4;strokeWidth=1.5;fillColor=#FFFFFF;gradientColor=none;" vertex="1" parent="1">
          <mxGeometry x="80" y="730" width="26.5" height="26.5" as="geometry" />
        </mxCell>
        <mxCell id="mUfqZhUHqCJB--Umb8MJ-93" value="" style="ellipse;whiteSpace=wrap;html=1;aspect=fixed;shadow=0;fontSize=16;strokeColor=#D5E8D4;strokeWidth=1.5;fillColor=#FFFFFF;gradientColor=none;" vertex="1" parent="1">
          <mxGeometry x="120" y="730" width="26.5" height="26.5" as="geometry" />
        </mxCell>
        <mxCell id="mUfqZhUHqCJB--Umb8MJ-98" value="" style="ellipse;whiteSpace=wrap;html=1;aspect=fixed;shadow=0;fontSize=16;strokeColor=#D5E8D4;strokeWidth=1.5;fillColor=#FFFFFF;gradientColor=none;" vertex="1" parent="1">
          <mxGeometry x="120" y="730" width="26.5" height="26.5" as="geometry" />
        </mxCell>
        <mxCell id="mUfqZhUHqCJB--Umb8MJ-99" value="" style="ellipse;whiteSpace=wrap;html=1;aspect=fixed;shadow=0;fontSize=16;strokeColor=#D5E8D4;strokeWidth=1.5;fillColor=#FFFFFF;gradientColor=none;" vertex="1" parent="1">
          <mxGeometry x="158.5" y="730" width="26.5" height="26.5" as="geometry" />
        </mxCell>
        <mxCell id="mUfqZhUHqCJB--Umb8MJ-100" value="" style="endArrow=none;html=1;rounded=0;fontSize=16;strokeWidth=1;" edge="1" parent="1">
          <mxGeometry width="50" height="50" relative="1" as="geometry">
            <mxPoint x="80" y="700" as="sourcePoint" />
            <mxPoint x="106.5" y="675" as="targetPoint" />
          </mxGeometry>
        </mxCell>
        <mxCell id="mUfqZhUHqCJB--Umb8MJ-101" value="" style="endArrow=none;html=1;rounded=0;fontSize=16;strokeWidth=1;" edge="1" parent="1" source="mUfqZhUHqCJB--Umb8MJ-88" target="mUfqZhUHqCJB--Umb8MJ-90">
          <mxGeometry width="50" height="50" relative="1" as="geometry">
            <mxPoint x="132" y="677.75" as="sourcePoint" />
            <mxPoint x="158.5" y="652.75" as="targetPoint" />
          </mxGeometry>
        </mxCell>
        <mxCell id="mUfqZhUHqCJB--Umb8MJ-89" value="" style="ellipse;whiteSpace=wrap;html=1;aspect=fixed;shadow=0;fontSize=16;strokeColor=#D5E8D4;strokeWidth=1.5;fillColor=#FFFFFF;gradientColor=none;direction=south;" vertex="1" parent="1">
          <mxGeometry x="63.5" y="686.75" width="26.5" height="26.5" as="geometry" />
        </mxCell>
        <mxCell id="mUfqZhUHqCJB--Umb8MJ-102" value="" style="endArrow=none;html=1;rounded=0;fontSize=16;strokeWidth=1;" edge="1" parent="1" source="mUfqZhUHqCJB--Umb8MJ-91" target="mUfqZhUHqCJB--Umb8MJ-89">
          <mxGeometry width="50" height="50" relative="1" as="geometry">
            <mxPoint x="53.5" y="725" as="sourcePoint" />
            <mxPoint x="80" y="700" as="targetPoint" />
          </mxGeometry>
        </mxCell>
        <mxCell id="mUfqZhUHqCJB--Umb8MJ-104" value="" style="endArrow=none;html=1;rounded=0;fontSize=16;strokeWidth=1;" edge="1" parent="1">
          <mxGeometry width="50" height="50" relative="1" as="geometry">
            <mxPoint x="138.32959749084324" y="729.9990253444385" as="sourcePoint" />
            <mxPoint x="146.50485032867425" y="711.154782185149" as="targetPoint" />
          </mxGeometry>
        </mxCell>
        <mxCell id="mUfqZhUHqCJB--Umb8MJ-105" value="" style="endArrow=none;html=1;rounded=0;fontSize=16;strokeWidth=1;entryX=0.5;entryY=0;entryDx=0;entryDy=0;" edge="1" parent="1" target="mUfqZhUHqCJB--Umb8MJ-92">
          <mxGeometry width="50" height="50" relative="1" as="geometry">
            <mxPoint x="85" y="709" as="sourcePoint" />
            <mxPoint x="101.91303767480053" y="725.0038175518212" as="targetPoint" />
          </mxGeometry>
        </mxCell>
        <mxCell id="mUfqZhUHqCJB--Umb8MJ-106" value="" style="endArrow=none;html=1;rounded=0;fontSize=16;strokeWidth=1;entryX=0.5;entryY=0;entryDx=0;entryDy=0;exitX=1;exitY=1;exitDx=0;exitDy=0;" edge="1" parent="1" source="mUfqZhUHqCJB--Umb8MJ-90" target="mUfqZhUHqCJB--Umb8MJ-99">
          <mxGeometry width="50" height="50" relative="1" as="geometry">
            <mxPoint x="158.50126292107203" y="708.541672471647" as="sourcePoint" />
            <mxPoint x="167.16" y="730" as="targetPoint" />
          </mxGeometry>
        </mxCell>
        <mxCell id="mUfqZhUHqCJB--Umb8MJ-108" value="处理非活动连接" style="rounded=0;whiteSpace=wrap;html=1;shadow=0;fontSize=16;strokeColor=#FFFFFF;strokeWidth=1.5;fillColor=#FFFFFF;gradientColor=none;" vertex="1" parent="1">
          <mxGeometry x="130" y="480" width="120" height="30" as="geometry" />
        </mxCell>
      </root>
    </mxGraphModel>
  </diagram>
</mxfile>
